<svg width="28" height="24" viewBox="0 0 28 24" fill="none" xmlns="http://www.w3.org/2000/svg">
<g clip-path="url(#clip0_7158_150)">
<path d="M28 23.989C28 23.9951 27.9951 24 27.989 24V24C27.9832 24 27.9783 23.9953 27.9781 23.9894C27.4478 10.6509 16.4686 0 3 0H-255.482C-260.546 0 -264.705 -3.83269 -266.189 -8.67389C-272.459 -29.1276 -291.492 -44 -314 -44H-1341C-1363.51 -44 -1382.54 -29.1276 -1388.81 -8.67388C-1390.3 -3.83268 -1394.45 0 -1399.52 0H-1867C-1880.47 0 -1891.45 10.6509 -1891.98 23.9894C-1891.98 23.9953 -1891.98 24 -1891.99 24V24C-1892 24 -1892 23.9951 -1892 23.989V-61C-1892 -66.5228 -1887.52 -71 -1882 -71H18C23.5229 -71 28 -66.5228 28 -61V23.989Z" fill="#7027E2"/>
</g>
<defs>
<clipPath id="clip0_7158_150">
<rect width="28" height="24" fill="white"/>
</clipPath>
</defs>
</svg>
