<svg width="68" height="71" viewBox="0 0 68 71" fill="none" xmlns="http://www.w3.org/2000/svg">
<g clip-path="url(#clip0_7158_150)">
<path d="M343 94.989C343 94.9951 342.995 95 342.989 95V95C342.983 95 342.978 94.9953 342.978 94.9894C342.448 81.6509 331.469 71 318 71H59.5179C54.4543 71 50.295 67.1673 48.8111 62.3261C42.5414 41.8724 23.508 27 1 27H-1026C-1048.51 27 -1067.54 41.8724 -1073.81 62.3261C-1075.3 67.1673 -1079.45 71 -1084.52 71H-1552C-1565.47 71 -1576.45 81.6509 -1576.98 94.9894C-1576.98 94.9953 -1576.98 95 -1576.99 95V95C-1577 95 -1577 94.9951 -1577 94.989V10C-1577 4.47715 -1572.52 0 -1567 0H333C338.523 0 343 4.47715 343 10V94.989Z" fill="#7027E2"/>
</g>
<defs>
<clipPath id="clip0_7158_150">
<rect width="68" height="71" fill="white"/>
</clipPath>
</defs>
</svg>
